<?xml version="1.0" standalone="no"?>
<!DOCTYPE svg PUBLIC "-//W3C//DTD SVG 20010904//EN"
 "http://www.w3.org/TR/2001/REC-SVG-20010904/DTD/svg10.dtd">
<svg version="1.0" xmlns="http://www.w3.org/2000/svg"
 width="461.000000pt" height="461.000000pt" viewBox="0 0 461.000000 461.000000"
 preserveAspectRatio="xMidYMid meet">

<g transform="translate(0.000000,461.000000) scale(0.100000,-0.100000)"
fill="#000000" stroke="none">
<path d="M3879 3548 c0 -2 -2 -14 -5 -27 -4 -24 -4 -24 16 -6 24 22 25 26 3
18 -11 -4 -14 -3 -9 5 4 7 5 12 2 12 -3 0 -6 -1 -7 -2z"/>
<path d="M3839 3483 c-1 -4 0 -18 1 -30 1 -17 -4 -23 -17 -23 -11 0 -32 -16
-47 -35 -16 -19 -32 -32 -37 -29 -5 3 -9 0 -9 -5 0 -6 -7 -11 -15 -11 -8 0
-15 -4 -15 -9 0 -5 -13 -11 -29 -14 -16 -3 -35 -12 -42 -20 -8 -7 -19 -12 -26
-10 -6 2 -14 -1 -18 -6 -3 -6 -15 -11 -26 -11 -11 0 -19 -7 -19 -17 0 -15 -60
-53 -83 -53 -17 0 -68 -65 -64 -82 3 -10 1 -16 -3 -13 -5 3 -11 1 -14 -4 -4
-5 2 -12 11 -14 10 -3 0 -5 -22 -5 -22 0 -32 2 -22 5 9 2 17 9 17 15 0 5 -7 7
-16 4 -9 -3 -20 -6 -25 -6 -5 0 -9 -7 -9 -15 0 -8 -9 -15 -20 -15 -11 0 -20 5
-20 10 0 6 -4 10 -10 10 -5 0 -7 -7 -4 -15 4 -10 0 -15 -14 -15 -11 0 -23 6
-25 13 -4 7 -6 6 -6 -5 -1 -12 -15 -18 -53 -24 -29 -4 -57 -7 -62 -6 -4 2 -88
-13 -185 -32 -97 -19 -210 -39 -251 -46 -153 -24 -232 -90 -232 -196 0 -37 8
-57 46 -114 25 -37 54 -71 63 -75 16 -6 15 -8 -9 -21 -34 -18 -65 -69 -74
-121 -12 -75 16 -153 32 -89 3 13 19 37 35 52 30 28 33 29 159 32 l129 4 -6
-66 c-10 -111 40 -197 145 -247 81 -37 190 -8 246 65 47 62 59 103 53 179 l-6
67 110 0 c108 0 110 0 119 -26 17 -43 12 -160 -10 -220 -51 -146 -178 -271
-307 -304 -29 -8 -53 -17 -53 -20 0 -4 -15 -5 -32 -3 -27 3 -29 1 -13 -6 14
-7 -7 -10 -72 -10 -117 -1 -109 -2 -105 16 3 12 -2 14 -23 9 -19 -5 -25 -3
-19 5 4 7 2 10 -7 7 -8 -3 -13 -12 -11 -19 1 -8 -5 -5 -15 6 -27 31 -94 71
-87 51 3 -9 10 -14 14 -11 5 3 11 1 15 -5 3 -5 1 -10 -4 -10 -6 0 -13 0 -16 0
-3 0 -13 -7 -22 -15 -59 -51 -80 -73 -87 -90 -5 -14 -9 -16 -15 -7 -9 15 -51
-12 -51 -34 0 -18 14 -18 30 1 12 14 30 12 30 -4 0 -11 -90 -52 -101 -46 -5 4
-9 2 -9 -3 0 -18 -53 -25 -65 -8 -8 10 -16 12 -26 5 -11 -7 -11 -9 4 -9 9 0
17 -5 17 -11 0 -7 -10 -9 -25 -7 -14 3 -25 1 -25 -3 0 -15 -191 -10 -265 7
-114 26 -133 28 -160 10 -29 -19 -43 -76 -27 -111 14 -29 101 -59 247 -82 62
-11 105 -23 113 -32 11 -14 11 -14 6 1 -3 10 -1 18 5 18 15 0 14 -40 -1 -41
-7 -1 -24 -2 -38 -3 -31 -3 -78 -14 -107 -26 -14 -6 -33 -6 -47 0 -18 7 -26 5
-30 -5 -6 -16 9 -29 24 -20 6 3 10 2 10 -4 0 -5 8 -12 18 -14 10 -3 6 -5 -11
-6 -15 0 -30 -8 -34 -17 -4 -10 -13 -13 -32 -9 -22 5 -31 0 -49 -25 -13 -17
-42 -42 -65 -56 -23 -15 -50 -36 -61 -46 -15 -16 -20 -17 -27 -6 -7 10 -17 3
-44 -27 -31 -36 -34 -38 -35 -17 0 27 -10 28 -44 1 -19 -15 -26 -30 -26 -55 0
-33 -1 -34 -39 -34 -23 0 -41 5 -43 12 -3 8 -17 1 -37 -20 -25 -25 -41 -32
-71 -32 -21 0 -45 -6 -52 -14 -8 -7 -24 -17 -36 -20 -12 -4 -22 -11 -22 -15 0
-12 -57 -34 -69 -27 -6 4 -18 -2 -28 -14 -11 -13 -30 -20 -51 -20 -19 0 -35
-6 -38 -14 -3 -8 -26 -22 -50 -31 -28 -11 -43 -22 -40 -30 3 -8 -12 -19 -37
-29 -36 -14 -42 -14 -49 -1 -5 8 -15 12 -24 8 -14 -5 -13 -9 7 -24 24 -18 24
-18 4 -34 -11 -9 -15 -14 -8 -11 6 4 15 1 18 -4 5 -7 12 -5 21 7 8 10 14 14
13 8 -3 -22 1 -35 12 -35 5 0 8 4 4 9 -3 5 -1 12 4 15 5 4 12 -2 15 -11 5 -17
69 -18 1193 -21 1296 -4 1231 -6 1358 52 121 56 242 197 286 335 22 66 22 67
20 1141 -1 591 -4 1094 -7 1118 -7 44 -26 55 -53 30 -10 -11 -10 -8 0 15 9 19
15 24 20 15 4 -7 10 -10 14 -7 3 3 -4 14 -15 24 -20 18 -21 18 -40 -3 -11 -12
-20 -26 -20 -32 0 -6 -5 -8 -11 -5 -6 4 -7 14 -4 24 12 30 14 51 4 56 -5 4 -9
3 -10 -2z m98 -185 c-3 -7 -5 -2 -5 12 0 14 2 19 5 13 2 -7 2 -19 0 -25z
m-477 -168 c0 -5 -4 -10 -10 -10 -5 0 -10 5 -10 10 0 6 5 10 10 10 6 0 10 -4
10 -10z m-30 -35 c0 -8 -4 -15 -8 -15 -5 0 -9 7 -9 15 0 8 4 15 9 15 4 0 8 -7
8 -15z m55 -35 c8 -13 -5 -13 -25 0 -13 8 -13 10 2 10 9 0 20 -4 23 -10z
m-259 -455 c5 -12 9 -13 21 -3 11 9 16 9 22 -1 6 -9 34 -12 98 -9 55 2 90 -1
90 -7 0 -6 -85 -9 -240 -7 -132 1 -238 4 -236 6 2 3 50 6 107 7 74 3 102 7
102 16 0 18 29 16 36 -2z m-436 -755 c-15 -9 -70 0 -70 12 0 5 10 6 23 3 15
-4 18 -4 8 3 -7 5 -10 15 -6 22 5 8 14 5 31 -11 15 -14 20 -25 14 -29z m-80 0
c0 -5 12 -10 28 -11 26 -1 26 -1 -5 -10 -18 -5 -35 -9 -38 -9 -3 0 -19 -16
-37 -35 -20 -23 -34 -33 -41 -26 -6 6 -2 17 12 32 11 13 21 19 21 15 0 -5 7
-3 15 4 11 9 12 16 5 25 -8 9 -7 15 2 18 22 9 38 8 38 -3z m95 -21 c-4 -5 1
-20 11 -32 16 -18 14 -18 -9 2 -20 18 -24 27 -15 33 17 11 20 10 13 -3z m45
-90 c0 -5 -4 -9 -8 -9 -5 0 -9 7 -9 15 0 8 4 12 9 9 4 -3 8 -9 8 -15z m-310
-219 c-8 -5 -22 -9 -30 -9 -10 0 -8 3 5 9 27 12 43 12 25 0z m-53 -16 c-3 -3
-12 -4 -19 -1 -8 3 -5 6 6 6 11 1 17 -2 13 -5z m-44 -11 c-7 -2 -19 -2 -25 0
-7 3 -2 5 12 5 14 0 19 -2 13 -5z m-44 -7 c-11 -9 -69 -14 -69 -6 0 6 17 10
37 10 20 0 34 -2 32 -4z m-232 -102 c-3 -3 -12 -4 -19 -1 -8 3 -5 6 6 6 11 1
17 -2 13 -5z"/>
<path d="M2680 1841 c0 -6 5 -13 10 -16 6 -3 10 1 10 9 0 9 -4 16 -10 16 -5 0
-10 -4 -10 -9z"/>
<path d="M2636 1783 c-6 -14 -5 -15 5 -6 7 7 10 15 7 18 -3 3 -9 -2 -12 -12z"/>
<path d="M1247 3226 c-132 -49 -216 -194 -157 -269 12 -15 26 -24 32 -21 6 4
8 2 4 -4 -3 -5 9 -19 26 -30 31 -19 136 -45 467 -113 79 -17 205 -48 279 -70
198 -57 283 -49 325 31 24 47 16 184 -14 247 -37 77 -102 101 -434 158 -82 14
-199 37 -260 50 -144 33 -220 39 -268 21z"/>
<path d="M3356 3153 c-11 -11 -6 -23 9 -23 8 0 15 4 15 9 0 13 -16 22 -24 14z"/>
<path d="M3296 3127 c-11 -8 -16 -20 -13 -28 4 -10 6 -9 6 4 1 9 8 17 16 17 8
0 15 5 15 10 0 13 -3 13 -24 -3z"/>
<path d="M1167 2575 c-82 -28 -117 -88 -117 -200 0 -82 24 -170 64 -233 22
-35 109 -122 121 -122 3 0 -9 21 -27 47 -57 83 -77 148 -78 243 0 135 -9 130
231 130 l199 0 -7 -27 c-13 -46 -5 -130 16 -170 52 -103 168 -152 272 -118
111 37 186 158 160 260 -6 24 -11 46 -11 49 0 3 20 6 45 6 54 0 90 -33 107
-99 l11 -43 15 38 c25 66 26 107 3 152 -25 49 -62 80 -105 86 -17 3 -218 7
-446 10 -326 3 -423 1 -453 -9z"/>
<path d="M2471 2264 c0 -11 3 -14 6 -6 3 7 2 16 -1 19 -3 4 -6 -2 -5 -13z"/>
<path d="M2661 1967 c2 -1 13 -9 24 -17 19 -14 19 -14 6 3 -7 9 -18 17 -24 17
-6 0 -8 -1 -6 -3z"/>
<path d="M2886 1862 c-2 -4 11 -6 30 -4 19 2 34 6 34 8 0 8 -59 4 -64 -4z"/>
<path d="M1568 1843 c7 -3 16 -2 19 1 4 3 -2 6 -13 5 -11 0 -14 -3 -6 -6z"/>
<path d="M1668 1843 c6 -2 18 -2 25 0 6 3 1 5 -13 5 -14 0 -19 -2 -12 -5z"/>
<path d="M2466 1718 c6 -10 54 -6 54 4 0 5 -13 7 -29 6 -16 -1 -27 -6 -25 -10z"/>
<path d="M2440 1706 c0 -2 7 -7 16 -10 8 -3 12 -2 9 4 -6 10 -25 14 -25 6z"/>
<path d="M2140 1460 c-9 -6 -10 -10 -3 -10 6 0 15 5 18 10 8 12 4 12 -15 0z"/>
<path d="M2178 1459 c-7 -4 -9 -11 -5 -16 5 -4 12 -1 16 6 5 8 11 9 15 3 6
-11 46 -4 46 7 0 10 -56 10 -72 0z"/>
<path d="M846 861 c-3 -5 2 -15 12 -22 15 -12 16 -12 5 2 -7 9 -10 19 -6 22 3
4 4 7 0 7 -3 0 -8 -4 -11 -9z"/>
<path d="M968 853 c7 -3 16 -2 19 1 4 3 -2 6 -13 5 -11 0 -14 -3 -6 -6z"/>
<path d="M918 823 c6 -2 9 -10 6 -15 -4 -7 -2 -8 5 -4 6 4 18 4 24 -1 7 -4 4
0 -6 10 -11 9 -24 17 -31 16 -7 0 -6 -2 2 -6z"/>
</g>
</svg>
